<?xml version="1.0" standalone="no"?>
<!DOCTYPE svg PUBLIC "-//W3C//DTD SVG 20010904//EN"
 "http://www.w3.org/TR/2001/REC-SVG-20010904/DTD/svg10.dtd">
<svg version="1.0" xmlns="http://www.w3.org/2000/svg"
 width="736.000000pt" height="736.000000pt" viewBox="0 0 736.000000 736.000000"
 preserveAspectRatio="xMidYMid meet">

<g transform="translate(0.000000,736.000000) scale(0.100000,-0.100000)"
fill="#000000" stroke="none">
<path d="M3500 6702 c-58 -29 -69 -61 -86 -248 -32 -362 -44 -534 -44 -649 0
-66 -10 -201 -21 -300 -16 -142 -22 -258 -24 -546 -2 -201 -9 -403 -14 -449
-6 -47 -11 -116 -11 -155 0 -73 -23 -137 -51 -143 -24 -4 -70 86 -259 508
-100 223 -245 533 -322 690 -77 157 -169 360 -203 452 -95 251 -236 522 -285
548 -36 19 -86 -6 -174 -90 -46 -43 -103 -90 -127 -106 -171 -106 -191 -142
-141 -248 45 -97 204 -368 404 -690 188 -302 231 -376 338 -578 56 -106 129
-221 307 -483 36 -54 173 -291 173 -301 0 -11 -471 11 -1087 51 -230 15 -266
13 -290 -16 -18 -22 -34 -125 -40 -264 l-6 -130 27 -32 c36 -42 97 -60 231
-67 61 -3 212 -21 336 -41 304 -47 385 -54 581 -49 198 4 208 0 162 -68 -56
-81 -339 -353 -509 -489 -210 -168 -285 -246 -393 -413 -116 -179 -250 -367
-369 -517 -55 -70 -112 -148 -128 -175 -26 -45 -27 -51 -16 -93 21 -86 97
-223 152 -278 89 -89 111 -85 211 35 40 48 111 130 158 182 156 173 221 254
313 390 50 74 118 164 152 200 107 113 258 302 351 436 73 106 124 164 289
329 l200 200 3 -68 c2 -42 -13 -182 -38 -360 -56 -396 -69 -529 -76 -757 -4
-119 -17 -285 -35 -425 -44 -356 -54 -497 -40 -559 24 -106 82 -124 251 -81
79 20 137 28 234 31 136 5 151 10 168 53 13 35 77 1246 84 1586 6 321 9 356
32 385 17 21 21 16 167 -235 161 -279 283 -538 406 -862 37 -101 84 -220 102
-265 19 -46 42 -114 52 -153 10 -38 26 -86 35 -105 10 -19 34 -83 54 -141 31
-88 48 -118 100 -183 35 -42 84 -117 110 -165 70 -134 131 -177 213 -151 98
31 394 224 420 274 23 44 12 108 -46 287 -35 105 -84 222 -152 360 -56 112
-135 281 -176 374 -111 251 -252 533 -341 680 -43 72 -160 255 -261 408 -182
275 -219 342 -208 371 11 29 72 30 160 2 107 -34 159 -42 357 -56 91 -7 205
-21 253 -31 49 -11 159 -24 245 -29 86 -5 189 -14 228 -21 79 -14 96 -11 118
23 15 23 66 424 66 518 0 71 -15 88 -115 133 l-90 40 -260 8 c-200 6 -326 16
-545 43 -368 46 -360 45 -360 63 0 8 86 99 191 202 105 102 245 248 310 323
65 75 140 153 165 174 88 72 379 411 531 619 28 39 66 84 83 100 18 17 50 57
72 90 23 33 65 83 96 112 l54 51 -4 65 c-2 37 -13 83 -25 108 -12 24 -30 80
-42 124 -22 83 -175 399 -215 444 -32 35 -62 43 -99 27 -41 -18 -233 -228
-300 -328 -142 -211 -326 -482 -377 -553 -32 -44 -83 -130 -114 -190 -48 -93
-80 -138 -206 -285 -111 -130 -200 -249 -342 -459 -106 -155 -209 -302 -231
-325 l-38 -41 5 40 c6 47 22 262 36 495 6 91 19 221 29 290 18 118 33 252 46
420 3 41 15 161 25 265 11 105 24 254 29 331 6 78 16 179 22 225 7 47 9 98 5
114 -21 82 -149 137 -361 155 -72 6 -146 15 -165 20 -44 12 -39 13 -80 -8z"/>
</g>
</svg>
